<svg xmlns="http://www.w3.org/2000/svg" xmlns:xlink="http://www.w3.org/1999/xlink" width="200" zoomAndPan="magnify" viewBox="0 0 150 37.5" height="50" preserveAspectRatio="xMidYMid meet" version="1.2"><g id="4ba8c2c1a0"><path style=" stroke:none;fill-rule:nonzero;fill:#d4af37;fill-opacity:1;" d="M 21.996094 32.691406 C 16.996094 35.144531 11.957031 35.113281 6.863281 32.722656 C 5.730469 32.1875 5.34375 30.773438 6.058594 29.746094 L 6.089844 29.707031 C 6.648438 28.910156 7.699219 28.632812 8.585938 29.039062 C 12.503906 30.851562 16.394531 30.886719 20.257812 29.074219 C 21.160156 28.65625 22.238281 28.96875 22.777344 29.804688 C 23.433594 30.804688 23.070312 32.167969 21.996094 32.699219 Z M 21.996094 32.691406 "/><path style=" stroke:none;fill-rule:nonzero;fill:#d4af37;fill-opacity:1;" d="M 14.46875 34.558594 C 11.964844 34.558594 9.40625 33.949219 6.855469 32.753906 C 6.308594 32.496094 5.902344 32.007812 5.742188 31.421875 C 5.585938 30.84375 5.699219 30.226562 6.046875 29.730469 L 6.074219 29.691406 C 6.640625 28.878906 7.707031 28.601562 8.609375 29.015625 C 12.519531 30.828125 16.4375 30.84375 20.25 29.054688 C 21.160156 28.625 22.257812 28.949219 22.808594 29.789062 C 23.132812 30.277344 23.222656 30.886719 23.070312 31.453125 C 22.921875 32.007812 22.539062 32.476562 22.019531 32.722656 C 19.535156 33.941406 17.003906 34.558594 14.476562 34.558594 Z M 7.738281 28.886719 C 7.105469 28.886719 6.496094 29.1875 6.121094 29.730469 L 6.089844 29.765625 C 5.75 30.25 5.644531 30.84375 5.796875 31.40625 C 5.945312 31.976562 6.347656 32.445312 6.878906 32.699219 C 11.984375 35.097656 17.0625 35.085938 21.988281 32.671875 L 22.003906 32.699219 L 21.988281 32.671875 C 22.484375 32.421875 22.859375 31.972656 23.011719 31.4375 C 23.160156 30.886719 23.070312 30.300781 22.753906 29.828125 C 22.222656 29.007812 21.152344 28.699219 20.273438 29.113281 C 18.347656 30.015625 16.394531 30.464844 14.445312 30.460938 C 12.511719 30.453125 10.535156 29.984375 8.578125 29.074219 C 8.308594 28.949219 8.023438 28.886719 7.738281 28.886719 Z M 7.738281 28.886719 "/><path style=" stroke:none;fill-rule:nonzero;fill:#d4af37;fill-opacity:1;" d="M 14.4375 6.738281 C 8.722656 6.738281 4.089844 11.371094 4.089844 17.085938 C 4.089844 22.804688 8.722656 27.4375 14.4375 27.4375 C 20.152344 27.4375 24.785156 22.804688 24.785156 17.085938 C 24.785156 11.371094 20.152344 6.738281 14.4375 6.738281 Z M 14.484375 23.511719 C 10.957031 23.511719 8.097656 20.652344 8.097656 17.125 C 8.097656 13.597656 10.957031 10.742188 14.484375 10.742188 C 18.011719 10.742188 20.867188 13.597656 20.867188 17.125 C 20.867188 20.652344 18.011719 23.511719 14.484375 23.511719 Z M 14.484375 23.511719 "/><path style=" stroke:none;fill-rule:nonzero;fill:#d4af37;fill-opacity:1;" d="M 14.4375 27.457031 C 8.714844 27.457031 4.058594 22.804688 4.058594 17.082031 C 4.058594 11.355469 8.714844 6.703125 14.4375 6.703125 C 20.160156 6.703125 24.816406 11.355469 24.816406 17.082031 C 24.816406 22.804688 20.160156 27.457031 14.4375 27.457031 Z M 14.4375 6.769531 C 8.753906 6.769531 4.121094 11.394531 4.121094 17.085938 C 4.121094 22.78125 8.746094 27.40625 14.4375 27.40625 C 20.128906 27.40625 24.753906 22.78125 24.753906 17.085938 C 24.753906 11.394531 20.128906 6.769531 14.4375 6.769531 Z M 14.484375 23.539062 C 10.949219 23.539062 8.066406 20.660156 8.066406 17.125 C 8.066406 13.589844 10.949219 10.710938 14.484375 10.710938 C 18.015625 10.710938 20.898438 13.589844 20.898438 17.125 C 20.898438 20.660156 18.015625 23.539062 14.484375 23.539062 Z M 14.484375 10.777344 C 10.976562 10.777344 8.128906 13.628906 8.128906 17.132812 C 8.128906 20.636719 10.976562 23.488281 14.484375 23.488281 C 17.988281 23.488281 20.835938 20.636719 20.835938 17.132812 C 20.835938 13.628906 17.988281 10.777344 14.484375 10.777344 Z M 14.484375 10.777344 "/><path style=" stroke:none;fill-rule:nonzero;fill:#d4af37;fill-opacity:1;" d="M 14.511719 2.398438 C 14.371094 2.460938 12.144531 3.371094 12.144531 4.484375 C 12.144531 5.597656 13.242188 4.234375 14.492188 4.234375 C 15.738281 4.234375 16.777344 5.632812 16.777344 4.484375 C 16.777344 3.582031 14.746094 2.527344 14.511719 2.398438 Z M 14.511719 2.398438 "/><path style=" stroke:none;fill-rule:nonzero;fill:#d4af37;fill-opacity:1;" d="M 12.4375 5.746094 C 13.828125 5.550781 15.21875 5.542969 16.609375 5.746094 "/><path style=" stroke:none;fill-rule:nonzero;fill:#d4af37;fill-opacity:1;" d="M 16.609375 5.988281 C 16.609375 5.988281 16.589844 5.988281 16.574219 5.988281 C 15.234375 5.792969 13.851562 5.792969 12.46875 5.988281 C 12.332031 6.011719 12.210938 5.914062 12.195312 5.785156 C 12.175781 5.648438 12.273438 5.527344 12.398438 5.515625 C 13.828125 5.3125 15.25 5.3125 16.640625 5.515625 C 16.777344 5.535156 16.867188 5.65625 16.84375 5.792969 C 16.828125 5.914062 16.722656 6.003906 16.605469 6.003906 Z M 16.609375 5.988281 "/><path style=" stroke:none;fill-rule:nonzero;fill:#d4af37;fill-opacity:1;" d="M 16.355469 15.515625 C 16.355469 15.515625 16.316406 15.515625 16.296875 15.515625 C 15.183594 15.238281 13.992188 15.230469 12.785156 15.476562 C 12.65625 15.507812 12.527344 15.417969 12.496094 15.289062 C 12.46875 15.164062 12.558594 15.035156 12.683594 15.003906 C 13.972656 14.734375 15.226562 14.75 16.414062 15.042969 C 16.542969 15.074219 16.625 15.207031 16.589844 15.335938 C 16.558594 15.449219 16.460938 15.515625 16.355469 15.515625 Z M 16.355469 15.515625 "/><path style=" stroke:none;fill-rule:nonzero;fill:#0f2d4a;fill-opacity:1;" d="M 29.929688 12.628906 L 35.75 12.628906 C 38.5625 12.628906 40.707031 14.433594 40.707031 17.269531 C 40.707031 20.105469 38.5625 21.910156 35.75 21.910156 L 32.789062 21.910156 L 32.789062 27.390625 L 29.929688 27.390625 L 29.929688 12.621094 Z M 32.789062 14.960938 L 32.789062 19.585938 L 35.457031 19.585938 C 36.828125 19.585938 37.855469 18.71875 37.855469 17.277344 C 37.855469 15.832031 36.828125 14.96875 35.457031 14.96875 L 32.789062 14.96875 Z M 32.789062 14.960938 "/><path style=" stroke:none;fill-rule:nonzero;fill:#0f2d4a;fill-opacity:1;" d="M 41.488281 22.335938 C 41.488281 19.328125 43.585938 17.042969 46.339844 17.042969 C 47.558594 17.042969 48.589844 17.488281 49.300781 18.214844 L 49.300781 17.246094 L 52.03125 17.246094 L 52.03125 27.390625 L 49.300781 27.390625 L 49.300781 26.421875 C 48.589844 27.15625 47.558594 27.59375 46.363281 27.59375 C 43.585938 27.59375 41.488281 25.324219 41.488281 22.320312 Z M 49.453125 22.316406 C 49.453125 20.71875 48.398438 19.585938 46.867188 19.585938 C 45.332031 19.585938 44.300781 20.71875 44.300781 22.316406 C 44.300781 23.910156 45.355469 25.066406 46.867188 25.066406 C 48.378906 25.066406 49.453125 23.929688 49.453125 22.316406 Z M 49.453125 22.316406 "/><path style=" stroke:none;fill-rule:nonzero;fill:#0f2d4a;fill-opacity:1;" d="M 54.304688 14.042969 C 54.304688 13.164062 54.957031 12.460938 55.859375 12.460938 C 56.761719 12.460938 57.417969 13.15625 57.417969 14.042969 C 57.417969 14.929688 56.761719 15.621094 55.859375 15.621094 C 54.957031 15.621094 54.304688 14.929688 54.304688 14.042969 Z M 54.46875 17.253906 L 57.246094 17.253906 L 57.246094 27.398438 L 54.46875 27.398438 Z M 54.46875 17.253906 "/><path style=" stroke:none;fill-rule:nonzero;fill:#0f2d4a;fill-opacity:1;" d="M 58.753906 25.757812 L 60.394531 24.097656 C 61.085938 24.871094 62.011719 25.269531 63.148438 25.269531 C 64.027344 25.269531 64.515625 25.023438 64.515625 24.519531 C 64.515625 22.855469 59.410156 23.910156 59.410156 20.1875 C 59.410156 18.253906 60.898438 16.988281 63.320312 16.988281 C 64.996094 16.988281 66.410156 17.597656 67.292969 18.757812 L 65.628906 20.417969 C 65.019531 19.660156 64.222656 19.351562 63.335938 19.351562 C 62.515625 19.351562 62.074219 19.601562 62.074219 20.066406 C 62.074219 21.554688 67.15625 20.628906 67.15625 24.390625 C 67.15625 26.382812 65.621094 27.625 63.164062 27.625 C 61.417969 27.625 59.757812 26.933594 58.75 25.75 Z M 58.753906 25.757812 "/><path style=" stroke:none;fill-rule:nonzero;fill:#0f2d4a;fill-opacity:1;" d="M 68.375 22.335938 C 68.375 19.328125 70.472656 17.042969 73.226562 17.042969 C 74.445312 17.042969 75.472656 17.488281 76.1875 18.214844 L 76.1875 17.246094 L 78.917969 17.246094 L 78.917969 27.390625 L 76.1875 27.390625 L 76.1875 26.421875 C 75.472656 27.15625 74.445312 27.59375 73.246094 27.59375 C 70.472656 27.59375 68.375 25.324219 68.375 22.320312 Z M 76.339844 22.316406 C 76.339844 20.71875 75.285156 19.585938 73.75 19.585938 C 72.21875 19.585938 71.1875 20.71875 71.1875 22.316406 C 71.1875 23.910156 72.238281 25.066406 73.75 25.066406 C 75.261719 25.066406 76.339844 23.929688 76.339844 22.316406 Z M 76.339844 22.316406 "/><path style=" stroke:none;fill-rule:nonzero;fill:#0f2d4a;fill-opacity:1;" d="M 82.332031 20.003906 C 82.332031 15.742188 85.714844 12.402344 90.0625 12.402344 C 92.5 12.402344 94.621094 13.371094 95.96875 15.003906 L 94.035156 16.9375 C 93.109375 15.71875 91.703125 15.066406 90.039062 15.066406 C 87.226562 15.066406 85.25 17.058594 85.25 19.984375 C 85.25 22.910156 87.207031 24.960938 89.875 24.960938 C 92.207031 24.960938 93.742188 23.828125 94.183594 21.75 L 89.710938 21.707031 L 89.710938 19.222656 L 97.230469 19.222656 L 97.230469 19.621094 C 97.230469 24.917969 94.183594 27.609375 89.898438 27.609375 C 85.613281 27.609375 82.332031 24.246094 82.332031 20.003906 Z M 82.332031 20.003906 "/><path style=" stroke:none;fill-rule:nonzero;fill:#0f2d4a;fill-opacity:1;" d="M 98.847656 23.132812 L 98.847656 17.253906 L 101.621094 17.253906 L 101.621094 23.074219 C 101.621094 24.335938 102.292969 25.066406 103.449219 25.066406 C 104.609375 25.066406 105.277344 24.351562 105.277344 23.074219 L 105.277344 17.253906 L 108.03125 17.253906 L 108.03125 23.132812 C 108.03125 25.804688 106.15625 27.609375 103.449219 27.609375 C 100.742188 27.609375 98.847656 25.757812 98.847656 23.132812 Z M 98.847656 23.132812 "/><path style=" stroke:none;fill-rule:nonzero;fill:#0f2d4a;fill-opacity:1;" d="M 110.210938 12.207031 L 112.964844 12.207031 L 112.964844 27.398438 L 110.210938 27.398438 Z M 110.210938 12.207031 "/><path style=" stroke:none;fill-rule:nonzero;fill:#0f2d4a;fill-opacity:1;" d="M 115.398438 12.207031 L 118.152344 12.207031 L 118.152344 27.398438 L 115.398438 27.398438 Z M 115.398438 12.207031 "/><path style=" stroke:none;fill-rule:nonzero;fill:#0f2d4a;fill-opacity:1;" d="M 119.964844 22.335938 C 119.964844 19.328125 122.0625 17.042969 124.816406 17.042969 C 126.035156 17.042969 127.0625 17.488281 127.777344 18.214844 L 127.777344 17.246094 L 130.507812 17.246094 L 130.507812 27.390625 L 127.777344 27.390625 L 127.777344 26.421875 C 127.0625 27.15625 126.035156 27.59375 124.839844 27.59375 C 122.0625 27.59375 119.964844 25.324219 119.964844 22.320312 Z M 127.929688 22.316406 C 127.929688 20.71875 126.875 19.585938 125.34375 19.585938 C 123.808594 19.585938 122.777344 20.71875 122.777344 22.316406 C 122.777344 23.910156 123.832031 25.066406 125.34375 25.066406 C 126.855469 25.066406 127.929688 23.929688 127.929688 22.316406 Z M 127.929688 22.316406 "/><path style=" stroke:none;fill-rule:nonzero;fill:#0f2d4a;fill-opacity:1;" d="M 132.945312 12.207031 L 135.699219 12.207031 L 135.699219 21.914062 L 139.398438 17.253906 L 142.570312 17.253906 L 138.578125 22.089844 L 142.78125 27.40625 L 139.421875 27.40625 L 135.699219 22.464844 L 135.699219 27.40625 L 132.945312 27.40625 Z M 132.945312 12.207031 "/><path style=" stroke:none;fill-rule:nonzero;fill:#0f2d4a;fill-opacity:1;" d="M 145.21875 9.914062 C 143.820312 9.914062 142.683594 8.777344 142.683594 7.378906 C 142.683594 5.980469 143.820312 4.84375 145.21875 4.84375 C 146.617188 4.84375 147.753906 5.980469 147.753906 7.378906 C 147.753906 8.777344 146.617188 9.914062 145.21875 9.914062 Z M 145.21875 5.03125 C 143.925781 5.03125 142.871094 6.085938 142.871094 7.378906 C 142.871094 8.671875 143.925781 9.726562 145.21875 9.726562 C 146.511719 9.726562 147.566406 8.671875 147.566406 7.378906 C 147.566406 6.085938 146.511719 5.03125 145.21875 5.03125 Z M 145.21875 5.03125 "/><path style=" stroke:none;fill-rule:nonzero;fill:#0f2d4a;fill-opacity:1;" d="M 144.082031 6.84375 L 143.5625 6.84375 L 143.5625 6.566406 L 144.917969 6.566406 L 144.917969 6.84375 L 144.398438 6.84375 L 144.398438 8.191406 L 144.082031 8.191406 Z M 144.082031 6.84375 "/><path style=" stroke:none;fill-rule:nonzero;fill:#0f2d4a;fill-opacity:1;" d="M 145.136719 6.566406 L 145.363281 6.566406 L 145.957031 7.523438 L 146.550781 6.566406 L 146.773438 6.566406 L 146.773438 8.199219 L 146.460938 8.199219 L 146.460938 7.230469 L 146.0625 7.867188 L 145.851562 7.867188 L 145.453125 7.230469 L 145.453125 8.199219 L 145.136719 8.199219 Z M 145.136719 6.566406 "/></g></svg>