<?xml version="1.0" encoding="UTF-8"?>
<svg id="Layer_1" data-name="Layer 1" xmlns="http://www.w3.org/2000/svg" xmlns:xlink="http://www.w3.org/1999/xlink" viewBox="0 0 1000 250">
  <defs>
    <style>
      .cls-1 {
        font-size: 121.37px;
      }

      .cls-1, .cls-2 {
        font-family: Roca-Bold, Roca;
        font-weight: 700;
      }

      .cls-3 {
        letter-spacing: 0em;
      }

      .cls-4 {
        letter-spacing: 0em;
      }

      .cls-5 {
        letter-spacing: -.01em;
      }

      .cls-6 {
        clip-path: url(#clippath-2);
      }

      .cls-7 {
        letter-spacing: -.02em;
      }

      .cls-2 {
        font-size: 47.43px;
      }

      .cls-8 {
        letter-spacing: -.02em;
      }

      .cls-9 {
        letter-spacing: 0em;
      }

      .cls-10 {
        clip-path: url(#clippath-1);
      }

      .cls-11 {
        letter-spacing: -.04em;
      }

      .cls-12 {
        letter-spacing: -.04em;
      }

      .cls-13 {
        clip-path: url(#clippath);
      }

      .cls-14 {
        fill: none;
      }

      .cls-15 {
        clip-path: url(#clippath-3);
      }

      .cls-16 {
        letter-spacing: -.02em;
      }

      .cls-17 {
        letter-spacing: 0em;
      }

      .cls-18 {
        letter-spacing: 0em;
      }

      .cls-19 {
        fill: #010101;
      }
    </style>
    <clipPath id="clippath">
      <rect class="cls-14" x="558.17" y="134.88" width="104.25" height="32.65"/>
    </clipPath>
    <clipPath id="clippath-1">
      <rect class="cls-14" x="514.73" y="141.46" width="104.25" height="32"/>
    </clipPath>
    <clipPath id="clippath-2">
      <rect class="cls-14" x="679.79" y="141.46" width="266.63" height="17.37"/>
    </clipPath>
    <clipPath id="clippath-3">
      <rect class="cls-14" x="232.73" y="141.46" width="264.62" height="17.37"/>
    </clipPath>
  </defs>
  <g>
    <g>
      <path d="m164.58,228.68c-36.45,17.9-73.25,17.64-110.37.21-8.26-3.88-11.09-14.22-5.85-21.7l.21-.3c4.08-5.83,11.75-7.85,18.2-4.86,28.55,13.24,56.93,13.49,85.12.25,6.57-3.08,14.41-.78,18.38,5.3h0c4.78,7.32,2.16,17.24-5.68,21.1Z"/>
      <path d="m109.67,242.25h-.03c-18.26,0-36.94-4.43-55.53-13.16-4.02-1.89-6.98-5.42-8.12-9.7-1.13-4.24-.34-8.73,2.18-12.33l.21-.3c4.13-5.9,11.9-7.98,18.48-4.93,28.54,13.23,57.11,13.32,84.93.25,6.61-3.1,14.63-.79,18.66,5.37,2.34,3.58,3.03,8,1.9,12.12-1.12,4.06-3.91,7.45-7.67,9.3h0c-18.08,8.88-36.59,13.38-55,13.38Zm-49.12-41.37c-4.59,0-9.04,2.18-11.81,6.14l-.21.3c-2.44,3.49-3.21,7.85-2.12,11.96,1.11,4.15,3.98,7.58,7.88,9.41,37.22,17.48,74.3,17.41,110.18-.21l.1.2-.1-.2c3.64-1.79,6.35-5.08,7.44-9.02,1.1-4,.43-8.29-1.84-11.76-3.91-5.99-11.69-8.23-18.1-5.22-14.02,6.58-28.33,9.87-42.52,9.82-14.11-.06-28.5-3.45-42.79-10.07-1.97-.92-4.06-1.35-6.12-1.35Z"/>
    </g>
    <g>
      <path d="m109.47,39.37c-41.68,0-75.46,33.79-75.46,75.46s33.79,75.46,75.46,75.46,75.46-33.79,75.46-75.46-33.79-75.46-75.46-75.46Zm.3,122.33c-25.71,0-46.56-20.85-46.56-46.56s20.85-46.56,46.56-46.56,46.56,20.85,46.56,46.56-20.85,46.56-46.56,46.56Z"/>
      <path d="m109.47,190.52c-41.73,0-75.69-33.95-75.69-75.69S67.74,39.15,109.47,39.15s75.69,33.95,75.69,75.69-33.95,75.69-75.69,75.69Zm0-150.93c-41.49,0-75.24,33.75-75.24,75.24s33.75,75.24,75.24,75.24,75.24-33.75,75.24-75.24-33.75-75.24-75.24-75.24Zm.3,122.33c-25.79,0-46.78-20.98-46.78-46.78s20.98-46.78,46.78-46.78,46.78,20.98,46.78,46.78-20.98,46.78-46.78,46.78Zm0-93.11c-25.55,0-46.34,20.79-46.34,46.34s20.79,46.34,46.34,46.34,46.34-20.79,46.34-46.34-20.79-46.34-46.34-46.34Z"/>
    </g>
    <path d="m110.02,7.75c-1.05.42-17.26,7.06-17.26,15.19s8.01-1.83,17.09-1.83,16.66,10.23,16.66,1.83c0-6.6-14.83-14.25-16.49-15.19Z"/>
    <g>
      <path d="m94.86,32.12c10.14-1.44,20.29-1.48,30.43,0"/>
      <path d="m125.29,33.88c-.08,0-.17,0-.26-.02-9.78-1.43-19.85-1.43-29.93,0-.97.14-1.86-.53-2-1.5-.14-.97.53-1.86,1.5-2,10.41-1.48,20.82-1.48,30.93,0,.97.14,1.63,1.04,1.49,2-.13.88-.88,1.51-1.75,1.51Z"/>
    </g>
    <path d="m123.41,103.4c-.14,0-.28-.02-.43-.05-8.14-2.03-16.76-2.11-25.64-.25-.95.2-1.89-.41-2.09-1.37-.2-.96.41-1.89,1.37-2.09,9.4-1.97,18.56-1.88,27.22.28.95.24,1.52,1.19,1.29,2.14-.2.8-.92,1.34-1.71,1.34Z"/>
  </g>
  <text class="cls-1" transform="translate(225.12 116.18)"><tspan class="cls-8" x="0" y="0">P</tspan><tspan class="cls-18" x="77.31" y="0">a</tspan><tspan class="cls-9" x="147.83" y="0">isa </tspan><tspan class="cls-16" x="340.2" y="0">G</tspan><tspan class="cls-4" x="431.71" y="0">ullak</tspan></text>
  <g>
    <g class="cls-13">
      <path class="cls-19" d="m566.04,151.16c7.74-7.97,16.19-10.11,26.71-6.75,9.3,2.95,18.29,7.26,27.32,10.93,7.13,2.92,14.18,6.31,21.96,3.87,6.11-1.87,10.08-6.21,13.1-11.61.27-.48,2.51-5.57.64-3.33-13.23,15.98-32.95,3.12-48.15-2.95-6.96-2.78-14.22-6.31-21.89-5.63-7.64.61-13,5.46-17.85,10.89-.75.81-2.41,5.19-1.83,4.58Z"/>
    </g>
    <g class="cls-10">
      <path class="cls-19" d="m522.4,159.99c7.74-7.97,16.19-10.11,26.71-6.75,9.3,2.95,18.29,7.26,27.28,10.93,7.16,2.92,14.18,6.31,21.99,3.87,6.07-1.87,10.08-6.21,13.06-11.61.31-.48,2.51-5.57.68-3.33-13.23,15.98-32.95,3.12-48.15-2.95-6.96-2.78-14.22-6.31-21.92-5.67-7.6.64-12.96,5.5-17.82,10.93-.75.81-2.44,5.19-1.83,4.58Z"/>
    </g>
    <path class="cls-19" d="m678.09,152.22c-2.58,1.46-4.62,3.46-6.04,6.04-1.32-2.68-3.33-4.68-6.01-6.04,2.61-1.36,4.62-3.39,6.01-6.01,1.49,2.55,3.5,4.55,6.04,6.01Z"/>
    <g class="cls-6">
      <path class="cls-19" d="m683.25,152.28c0-.37,20.8-.14,50.19-1.83,10.35-.61,18.97-1.29,25.01-1.8,20.8.71,52.23,1.66,90.64,2.31,55.99.98,98.44.88,98.44,1.19,0,.27-42.45.17-98.44,1.22-38.35.68-69.74,1.7-90.5,2.44-6.04-.48-14.73-1.12-25.15-1.66-29.39-1.59-50.19-1.46-50.19-1.87Z"/>
    </g>
    <path class="cls-19" d="m596.38,152.22c-2.58,1.46-4.58,3.46-6.01,6.04-1.36-2.68-3.36-4.68-6.04-6.04,2.65-1.36,4.65-3.39,6.04-6.01,1.46,2.55,3.46,4.55,6.01,6.01Z"/>
    <path class="cls-19" d="m502.17,152.22c2.58,1.46,4.58,3.46,6.04,6.04,1.32-2.68,3.33-4.68,6.01-6.04-2.61-1.36-4.65-3.39-6.01-6.01-1.49,2.55-3.5,4.55-6.04,6.01Z"/>
    <g class="cls-15">
      <path class="cls-19" d="m497.02,152.28c0-.37-20.84-.14-50.19-1.83-10.38-.61-18.97-1.29-25.01-1.8-20.8.71-52.23,1.66-90.64,2.31-55.99.98-98.44.88-98.44,1.19,0,.27,42.42.17,98.44,1.22,38.35.68,69.74,1.7,90.5,2.44,6.04-.48,14.73-1.12,25.15-1.66,29.39-1.59,50.19-1.46,50.19-1.87Z"/>
    </g>
  </g>
  <text class="cls-2" transform="translate(282.85 219.76)"><tspan x="0" y="0">B</tspan><tspan class="cls-5" x="30.83" y="0">a</tspan><tspan class="cls-7" x="57.53" y="0">c</tspan><tspan x="81.77" y="0">h</tspan><tspan class="cls-3" x="112.31" y="0">a</tspan><tspan x="139.21" y="0">t Rig</tspan><tspan class="cls-3" x="241.09" y="0">h</tspan><tspan x="271.25" y="0">t | </tspan><tspan class="cls-11" x="323.33" y="0">F</tspan><tspan x="349.51" y="0">utu</tspan><tspan class="cls-12" x="425.07" y="0">r</tspan><tspan x="445.27" y="0">e Brig</tspan><tspan class="cls-3" x="574.28" y="0">h</tspan><tspan class="cls-17" x="604.44" y="0">t</tspan></text>
</svg>